<svg width="25" height="24" viewBox="0 0 25 24" fill="none" xmlns="http://www.w3.org/2000/svg"><g clip-path="url(#a)"><path fill-rule="evenodd" clip-rule="evenodd" d="M9.033 0C4.044 0 0 4.03 0 9s4.044 9 9.033 9c2.167 0 4.155-.76 5.712-2.028l7.592 7.604a1.006 1.006 0 0 0 1.42.004.997.997 0 0 0 .003-1.414l-7.61-7.623A8.94 8.94 0 0 0 18.065 9c0-4.97-4.045-9-9.033-9M2.007 9c0-3.866 3.146-7 7.026-7s7.025 3.134 7.025 7-3.145 7-7.025 7-7.026-3.134-7.026-7" fill="#39F"/></g><defs><clipPath id="a"><path fill="#fff" d="M0 0h24.087v24H0z"/></clipPath></defs></svg>